<?xml version="1.0" standalone="no"?>
<!DOCTYPE svg PUBLIC "-//W3C//DTD SVG 1.1//EN" "http://www.w3.org/Graphics/SVG/1.1/DTD/svg11.dtd" >
<svg xmlns="http://www.w3.org/2000/svg">
<metadata>
This is a custom SVG font generated by IcoMoon.
<iconset id="Grands-Extended" name="Grands Extended" grid="16"></iconset>
<author name="Grawl and Hands-Creative" href="http://grawl.ru"></author><license name="CC BY 3.0" href="http://creativecommons.org/licenses/by/3.0/"></license>
</metadata>
<defs>
<font id="Grands-Extended" horiz-adv-x="512" >
<font-face units-per-em="512" ascent="480" descent="-32" />
<missing-glyph horiz-adv-x="512" />
<glyph class="hidden" unicode="&#xf000;" d="M0,480L 512 -32L0 -32 z" horiz-adv-x="0" />
<glyph unicode="&#xe018;" d="M 239.23,221.804c0,5.283-0.977,11.048-4.043,15.479
	c-6.151,8.877-19.359,11.701-28.553,6.106c-4.646-2.828-7.227-7.77-8.686-12.842c-2.892-10.071-1.568-21.566, 0.456-31.683
	c 0.645-3.235, 1.314-6.475, 2.221-9.649c 0.329-1.146, 0.481-2.81, 1.225-3.765c 1.3-1.667, 4.474-2.148, 6.422-1.82
	c 5.839,0.981, 4.395,10.599, 4.195,14.688c-0.465,9.579-3.289,18.876-0.555,28.403c 1.158,4.032, 3.397,8.565, 7.467,10.317
	c 3.675,1.582, 7.384-0.354, 8.839-3.943c 2.356-5.812, 1.769-12.525, 3.247-18.575c 0.503-2.055, 1.054-4.090, 1.98-6.007
	c 0.269-0.554, 0.64-1.705, 1.418-1.637c 1.893,0.174, 4.582,3.332, 6,4.503c 4.585,3.788, 9.291,7.842, 14.568,10.646
	c 2.484,1.319, 6.567,3.453, 9.104,1.212c 0.646-0.572, 1.167-1.256, 1.63-1.98c 2.979-4.668, 0.021-8.304-1.917-12.746
	c-2.508-5.746-5.079-11.436-8.713-16.569c-3.125-4.416-7.393-8.287-9.891-13.111c-1.606-3.107-2.516-6.509-1.852-10.014
	c 0.54-2.834, 2.736-4.548, 5.627-3.881c 2.165,0.496, 3.631,2.353, 4.863,4.064c 2.199,3.055, 4.242,6.222, 6.425,9.286
	c 4.228,5.929, 9.217,11.47, 12.772,17.845c 4.285,7.683, 6.35,16.376, 6.348,25.126c-0.002,7.152-2.596,18.082-10.925,19.581
	c-1.568,0.28-3.359,0.126-4.915-0.144c-1.935-0.337-3.879-0.966-5.643-1.822c-4.739-2.292-8.832-5.715-12.354-9.605
	c-2.194-2.426-4.16-5.475-6.765-7.465L 239.23,221.804L 239.23,221.804z M 168.397,86.075c-2.587-0.29-4.539-1.641-6.242-3.562
	c-1.172-1.323-2.286-2.519-2.96-4.189c-3.715-9.188, 6.188-17.865, 13.027-22.204c 7.612-4.829, 15.926-8.407, 24.399-11.423
	c 19.106-6.8, 41.517-11.153, 61.358-5.074c 5.899,1.806, 11.73,5.109, 16.017,9.57c 2.417,2.516, 4.074,6.322-0.357,7.933
	c-2.625,0.951-5.812-1.473-8.196-2.434c-5.62-2.268-11.445-3.985-17.48-4.715c-7.947-0.964-15.101,0.785-22.76,2.702
	c-6.541,1.633-13.155,3.269-19.482,5.628c-5.394,2.011-10.755,4.402-15.476,7.742c-1.413,0.999-3.102,1.888-4.258,3.188
	c-3.779,4.254-6.62,9.23-10.673,13.276c-1.751,1.749-4.24,3.862-6.919,3.563L 168.397,86.075 L 168.397,86.075z M 164.756,120.127
	l-0.004,0.002c 1.722,0.227, 4.355,0.44, 6.008-0.126c 3.552-1.22, 6.364-5.164, 9.105-7.576c 4.502-3.966, 9.322-7.528, 14.567-10.457
	c 13.343-7.443, 29.658-12.161, 44.975-12.537c 5.842-0.143, 11.67-0.060, 17.48,0.751c 2.456,0.339, 6.216,1.795, 8.56,0.693
	c 5.366-2.524, 7.104-13.882, 1.093-16.694c-2.125-0.993-4.986-1.166-7.284-1.55c-6.286-1.047-12.762-1.499-19.117-1.063
	c-22.109,1.516-42.668,8.924-60.814,21.763c-6.509,4.607-13.031,9.832-17.987,16.126c-1.709,2.174-5.285,6.967-2.039,9.353
	C 160.854,119.955, 162.939,119.888, 164.756,120.127L 164.756,120.127z M 174.044,160.548c-7.146-1.024-9.225-6.751-7.902-13.213
	c 1.689-8.272, 8.195-14.579, 14.638-19.547c 16.51-12.726, 37.835-19.608, 58.627-18.697c 8.113,0.354, 16.952,1.696, 24.399,5.139
	c 3.992,1.844, 8.17,8.493, 2.733,11.339c-0.745,0.389-1.72,0.63-2.549,0.766c-2.376,0.389-5.032-0.623-7.283-1.267
	c-3.968-1.14-7.933-2.306-12.018-2.961c-12.204-1.962-25.403,0.828-35.506,8.060c-8.167,5.845-14.775,13.559-21.011,21.355
	c-3.82,4.773-7.268,10.011-14.129,9.027L 174.044,160.548 L 174.044,160.548z M 231.401,398.707l-0.002-0.001c 4.121,0.54, 8.615,0.083, 12.747-0.099
	c 7.437-0.326, 14.825-0.957, 22.212-1.985c 15.756-2.194, 30.972-5.236, 45.522-11.914c 36.661-16.833, 59.747-51.825, 73.203-88.619
	c 4.417-12.070, 9.104-24.871, 10.681-37.688c 1.251-10.134, 0.343-20.563-2.391-30.407c-7.65-27.526-27.574-50.655-49.813-67.797
	c-11.036-8.508-24.151-14.363-33.86-24.518c-9.547-9.983-14.873-22.819-15.476-36.597c-0.329-7.462, 0.732-14.864, 1.886-22.215
	c 0.564-3.587, 1.149-7.538, 0.174-11.105c-0.57-2.083-2.115-3.868-4.438-3.754c-2.224,0.106-6.2,1.119-7.657,2.957
	c-0.778,0.983-0.828,3.052-1.103,4.255c-0.927,4.022-1.451,8.121-2.031,12.198c-2.838,19.9-0.25,41.353, 9.391,59.176
	c 3.582,6.62, 8.297,12.828, 13.964,17.793c 4.921,4.307, 10.79,7.65, 16.023,11.591c 9.375,7.061, 18.382,14.828, 26.387,23.421
	c 11.695,12.555, 21.873,27.302, 25.753,44.246c 2.237,9.766, 1.25,19.689-0.196,29.496c-3.076,20.889-9.464,40.775-21.54,58.265
	c-3.088,4.475-6.719,8.546-10.556,12.381c-26.972,26.973-66.985,33.663-103.604,31.152c-13.049-0.894-27.173-1.993-39.511-6.649
	c-10.478-3.957-17.747-12.194-24.137-21.044c-2.738-3.788-7.068-10.651-12.642-9.776c-3.626,0.565-4.541,5.916-4.965,8.866
	c-1.309,9.131-0.685,18.541, 0.2,27.678c 0.231,2.368, 0.526,4.733, 0.745,7.1c 0.079,0.843, 0.012,2.318, 0.663,2.949
	c 1.253,1.208, 3.625,1.811, 5.179,2.561c 4.179,2.025, 8.434,3.946, 12.746,5.672c 11.843,4.739, 23.953,8.668, 36.597,10.62
	C 218.154,397.934, 224.831,397.844, 231.401,398.707L 231.401,398.707z M 239.23,221.804L 239.23,221.804L 239.23,221.804L 239.23,221.804z
	 M 168.397,86.075L 168.397,86.075L 168.397,86.075L 168.397,86.075z M 164.756,120.127L 164.756,120.127L 164.756,120.127
	L 164.756,120.127z M 174.044,160.548L 174.044,160.548L 174.044,160.548L 174.044,160.548z M 231.401,398.707L 231.401,398.707L 231.401,398.707z
	"  />
<glyph unicode="&#xe000;" d="M 359.16,161.154c-69.027,44.409-135.911,44.754-204.314,0.682
		c-0.817,4.185-1.812,7.731-2.152,11.338c-1.102,11.732-0.614,23.805-3.309,35.138c-2.448,10.309-6.258,21.647-13.137,29.181
		c-7.058,7.729-7.896,14.316-5.8,23.108c 20.063,84.055, 117.289,125.196, 191.493,80.889c 33.137-19.788, 54.328-48.289, 60.871-86.667
		c 0.759-4.459-1.026-11.116-4.154-14.149c-9.979-9.661-14.532-21.112-15.591-34.528C 361.926,191.763, 360.58,177.394, 359.16,161.154z
		M 255.842,96.007c-26.708,0.007-53.446,0.723-80.117-0.316
		c-12.181-0.473-16.054,3.997-16.266,15.162c-0.152,7.815-0.721,15.881-2.831,23.346c-3.701,13.085, 1.914,20.595, 12.514,26.823
		c 34.765,20.421, 72.513,24.443, 111.572,20.193c 24.437-2.661, 47.729-9.259, 68.030-24.188c 5.99-4.401, 8.952-9.042, 7.731-16.789
		c-1.767-11.234-2.872-22.603-3.677-33.954c-0.561-8.032-4.263-10.524-12.106-10.423C 312.415,96.224, 284.127,96.002, 255.842,96.007zM 354.544,77.225c 4.511,41.826, 8.656,83.692, 13.66,125.46
		c 3.142,26.215, 26.055,46.462, 51.279,46.778c 24.443,0.307, 44.759-17.303, 48.945-42.429c 3.88-23.291-10.824-46.399-35.95-53.784
		c-9.521-2.799-14.34-7.782-17.743-16.462c-6.166-15.724-13.331-31.056-19.788-46.669c-2.083-5.034-4.551-10.431-4.598-15.677
		c-0.118-14.833-1.262-15.817-24.283-15.397C 352.678,59.287, 353.679,68.147, 354.544,77.225zM 158.396,72.436c-0.911-2.038-2.417-10.608-5.446-11.185
		c-8.894-1.696-18.408-0.412-27.631,0.301c-1.024,0.076-1.798,3.976-2.602,6.138c-9.673,25.947-18.938,52.060-29.413,77.679
		c-1.537,3.76-8.561,5.842-13.448,7.57c-22.301,7.898-36.056,25.539-36.166,47.111c-0.109,21.141, 13.366,40.113, 33.208,46.754
		c 29.739,9.955, 62.692-10.062, 67.206-43.023C 149.902,161.398, 153.471,118.708, 158.396,72.436z"  />
<glyph unicode="&#xe00f;" d="M 140.461,409.552L 259.362,409.552L 371.541,221.618L 260.912,29.584L 229.894,86.452L 140.461,29.584L 251.607,221.618 z"  />
<glyph unicode="&#xe010;" d="M 256.007,393.26c-93.476,0-169.262-75.781-169.262-169.259
	c0-69.307, 41.677-128.848, 101.314-155.025c-0.476,11.819-0.085,26.007, 2.946,38.867c 3.255,13.741, 21.779,92.229, 21.779,92.229
	s-5.409,10.806-5.409,26.781c0,25.082, 14.538,43.815, 32.644,43.815c 15.396,0, 22.834-11.564, 22.834-25.41
	c0-15.477-9.871-38.627-14.948-60.068c-4.24-17.956, 9.003-32.601, 26.714-32.601c 32.070,0, 53.667,41.189, 53.667,89.99
	c0,37.095-24.986,64.861-70.427,64.861c-51.344,0-83.329-38.288-83.329-81.056c0-14.746, 4.346-25.147, 11.158-33.198
	c 3.131-3.699, 3.567-5.188, 2.433-9.434c-0.812-3.113-2.677-10.611-3.448-13.584c-1.126-4.286-4.601-5.818-8.475-4.235
	c-23.648,9.654-34.663,35.55-34.663,64.662c0,48.082, 40.551,105.734, 120.969,105.734c 64.621,0, 107.154-46.763, 107.154-96.959
	c0-66.396-36.914-116.001-91.326-116.001c-18.274,0-35.463,9.879-41.351,21.097c0,0-9.827-38.996-11.907-46.528
	c-3.588-13.051-10.614-26.093-17.037-36.259c 15.224-4.496, 31.304-6.941, 47.972-6.941c 93.468,0, 169.251,75.781, 169.251,169.261
	C 425.256,317.48, 349.474,393.26, 256.007,393.26z"  />
<glyph unicode="&#xe011;" d="M 157.979,55.943c-38.282,22.046-64.962,54.518-82.36,95.126l 82.36,74.241L 157.979,55.943 zM 240.339,28.104c-19.757,0-40.595,5.797-62.64,16.24l0,93.97 l 258.697,0 c-31.319-63.805-90.24-110.21-158.93-110.21
		L 240.339,28.104 zM 360.99,392.362c 59.167-35.969, 95.126-98.609, 95.126-168.208c0-22.046-3.479-44.078-10.446-64.964l-84.68,0 L 360.99,392.362 zM 258.912,421.357c 28.994,0, 55.677-5.795, 81.199-17.407l0-132.227 c-6.963,3.479-146.176,133.397-149.646,136.877
		C 213.666,416.718, 236.868,421.357, 258.912,421.357zM 243.83,332.033L 68.658,173.115c-4.65,16.237-6.963,33.646-6.963,51.039c0,74.237, 39.439,141.515, 107.88,175.157
		L 243.83,332.033z"  />
<glyph unicode="&#xe019;" d="M 329.613,67.995c0-11.275,0-22.357,0-33.613c-49.081,0-98.028,0-147.227,0
	c0,11.223,0,22.207,0,33.532c 1.288,0.069, 2.345,0.17, 3.404,0.173c 7.322,0.019, 14.658,0.315, 21.961-0.060
	c 8.813-0.452, 17.612,9.447, 17.607,17.27c-0.019,23.961-0.007,47.92-0.005,71.878c 0.001,25.569, 0.021,51.139,0,76.707
	c-0.020,26.165-0.096,52.331-0.112,78.496c-0.009,12.937, 0.107,25.874, 0.085,38.811c-0.015,8.843-6.242,16.941-14.315,18.472
	c-2.428,0.46-4.987,0.285-7.485,0.299c-6.914,0.032-13.827,0.011-20.982,0.011c0,11.638,0,23.108,0,34.789
	c 48.964,0, 97.859,0, 146.979,0c0-11.515,0-22.969,0-34.745c-8.166,0-16.065-0.001-23.961,0.001c-9.221,0.001-16.495-5.771-18.504-14.805
	c-0.342-1.543-0.359-3.181-0.359-4.775c 0.002-69.902, 0.030-139.806, 0.041-209.709c 0.002-17.951-0.051-35.902-0.051-53.851
	c 0.002-10.824, 7.926-18.739, 18.736-18.743c 7.019-0.002, 14.040,0.047, 21.060,0.052C 327.461,68.183, 328.438,68.068, 329.613,67.995z"  />
<glyph unicode="&#xe01a;" d="M 139.623,371.629L 225.827,371.629L 225.827,282.187L 286.172,282.187L 286.172,371.629L 372.378,371.629L 372.378,76.372L 286.172,76.372L 286.172,193.826L 225.827,193.826L 225.827,76.372L 139.623,76.372 
	z"  />
<glyph unicode="&#xe01b;" d="M 454.441,317.251L 388.095,317.251L 388.095,383.597L 371.508,383.597L 371.508,317.251L 305.162,317.251L 305.162,300.664L 371.508,300.664L 371.508,234.318L 388.095,234.318L 388.095,300.664L 454.441,300.664 	zM 232.473,193.017c-9.268,6.56-26.99,22.516-26.99,31.893c0,10.99, 3.137,16.406, 19.679,29.331
		c 16.958,13.25, 28.958,31.875, 28.958,53.544c0,25.791-11.487,50.932-33.052,59.224l 32.511,0 l 22.946,16.588c0,0-76.902,0-102.533,0
		c-45.969,0-89.231-34.826-89.231-75.167c0-41.223, 31.334-74.494, 78.1-74.494c 3.252,0, 6.412,0.064, 9.506,0.286
		c-3.035-5.81-5.205-12.356-5.205-19.149c0-11.456, 6.163-20.745, 13.956-28.327c-5.886,0-11.574-0.17-17.774-0.17
		c-56.937,0-100.76-36.263-100.76-73.866c0-37.033, 48.042-60.2, 104.981-60.2c 64.91,0, 100.762,36.831, 100.762,73.866
		C 268.323,156.074, 259.562,173.859, 232.473,193.017L 232.473,193.017z M 177.696,244.387L 177.696,244.387
		c-26.419,0.79-51.523,29.554-56.083,64.239c-4.559,34.691, 13.153,61.244, 39.565,60.454c 26.409-0.795, 51.524-28.629, 56.086-63.315
		C 221.821,271.074, 204.104,243.599, 177.696,244.387L 177.696,244.387z M 167.351,68.884L 167.351,68.884
		c-39.354,0-67.779,24.912-67.779,54.838c0,29.33, 35.255,53.744, 74.61,53.32c 9.185-0.097, 17.744-1.575, 25.515-4.090
		c 21.362-14.857, 36.688-23.252, 41.011-40.183c 0.814-3.435, 1.256-6.966, 1.256-10.573C 241.964,92.27, 222.681,68.884, 167.351,68.884z"  />
<glyph unicode="&#xe01c;" d="M 441.25,158.278c-1.182-3.92-2.511-7.653-3.962-11.215l-1.7-3.933
		c-40.007-87.841-300.189-98.089-342.961,15.227l-1.435,4c-6.058,17.833-8.742,38.255-8.742,61.068
		c0,40.501, 12.622,55.78, 29.564,77.371c-12.954,46.174, 4.651,77.731, 4.651,77.731s 27.24,5.647, 78.728-31.225
		c 27.904,11.959, 102.311,12.954, 137.524,2.656c 21.592,14.286, 61.123,34.547, 77.066,28.873c 4.321-6.948, 13.622-27.212, 5.649-71.725
		c 5.409-9.765, 33.549-30.561, 33.657-89.356c-0.453-21.686-2.711-39.997-6.898-55.477L 441.25,158.278L 441.25,158.278z
		 M 404.228,172.243c0,29.232-13.593,67.101-67.1,67.101c-3.92,0-34.468-3.321-64.668-3.321c-34.016,0-69.243,3.321-74.636,3.321
		c-54.478,0-67.977-43.583-67.977-63.553C 129.847,55.997, 404.228,60.387, 404.228,172.243zM 221.526,172.576c0,23.42-12.74,42.41-28.458,42.41
		c-15.717,0-28.456-18.99-28.456-42.41s 12.74-39.751, 28.456-39.751C 208.785,132.825, 221.526,149.153, 221.526,172.576zM 375.323,172.576c0,23.42-12.737,42.41-28.455,42.41
		c-15.714,0-28.455-18.99-28.455-42.41s 12.741-39.751, 28.455-39.751C 362.587,132.825, 375.323,149.153, 375.323,172.576zM 267.92,107.355c-10.171,0-17.607,8.74-17.607,13.29
		c0,1.098, 0.892,1.994, 1.994,1.994c 1.102,0, 1.994-0.896, 1.994-1.994c0-2.25, 5.652-9.302, 13.619-9.302c 6.909,0, 12.067,4.91, 12.067,9.302
		c0,1.098, 0.894,1.994, 1.994,1.994s 1.99-0.896, 1.99-1.994C 283.973,114.359, 277.382,107.355, 267.92,107.355zM 260.833,137.14A6.866,6.866 540 1 0 274.565,137.14A6.866,6.866 540 1 0 260.833,137.14zM 174.355,172.576A18.713,27.462 540 1 0 211.782,172.57600000000002A18.713,27.462 540 1 0 174.355,172.57600000000002zM 328.155,172.576A18.715,27.462 540 1 0 365.584,172.57600000000002A18.715,27.462 540 1 0 328.155,172.57600000000002z"  />
<glyph unicode="&#xe01d;" d="M 408.751,373.601c-41.635,41.633-91.6,62.451-150.72,62.451c-59.123,0-109.088-20.819-150.726-62.451
	c-41.636-41.638-62.454-91.601-62.454-150.728c0-59.121, 20.818-109.086, 62.454-150.723c 41.638-41.632, 91.602-62.452, 150.726-62.452
	c 59.119,0, 109.084,20.822, 150.72,62.452c 41.634,41.638, 62.456,91.601, 62.456,150.723C 471.209,282, 450.386,331.963, 408.751,373.601
	z M 327.979,57.995c-5.859-2.424-10.826-4.166-16.656-5.832l0,31.646 c0,16.654-5.829,29.147-17.483,37.475
	c 45.795,3.331, 95.76,21.652, 95.76,100.759c0,21.651-6.661,39.971-20.818,54.959c 5.829,16.656, 4.997,34.977-2.497,54.126l-4.997,0.835
	c-6.624,1.102-27.482-5.832-50.798-21.651c-16.651,4.997-34.143,7.493-51.626,7.493c-17.487,0-34.975-2.496-50.798-7.493
	c-40.802,25.812-55.791,21.651-56.624,20.816c-7.494-19.15-8.327-37.471-2.497-54.126c-14.158-14.989-20.818-33.31-20.818-54.959
	c0-79.107, 49.963-97.428, 95.764-100.759c-10.826-7.496-16.656-19.985-16.656-37.475l0-32.476 c-6.661,1.666-13.294,4.238-19.151,6.661
	c-42.443,17.561-77.035,52.633-94.931,94.932c-18.746,44.306-18.746,95.588,0,139.895c 17.895,42.299, 52.631,77.035, 94.931,94.932
	c 44.309,18.744, 95.587,18.744, 139.896,0c 42.3-17.897, 77.035-52.633, 94.931-94.932c 18.744-44.306, 18.744-95.588,0-139.895
	C 405.014,110.629, 370.416,75.558, 327.979,57.995z"  />
<glyph unicode="&#xe01e;" d="M 235.129,119.397l-58.715,48.101c-11.063-3.409-22.687-3.901-33.779-1.667l 84.963-84.954c 6.923-6.927, 18.15-6.927, 25.070,0
		l 86.49,86.486c 6.93,6.924, 6.93,18.15,0,25.073l-4.446,4.446l-92.092-77.6C 238.681,116.094, 235.129,119.397, 235.129,119.397zM 221.085,210.667l 13.764-18.231c0,0, 4.050-5.944, 8.629,0.408l 39.861,55.416l-30.67,30.671c-6.92,6.92-18.147,6.92-25.070,0
		l-11.872-11.871C 225.835,249.46, 227.342,228.876, 221.085,210.667zM 382.994,371.611l-93.986-129.021l-45.704-62.74c-4.002-4.465-7.532-2.116-8.922-0.456
		c-0.477,0.563-9.988,13.016-22.289,29.147c 7.335,16.785, 6.834,36.356-1.947,52.937c-2.068,3.9-4.588,7.637-7.576,11.131
		c-21.887,25.574-60.356,28.581-85.927,6.692c-25.581-21.88-28.574-60.349-6.692-85.927c 7.357-8.602, 16.59-14.64, 26.579-18.046
		c 13.344-4.55, 28.039-4.395, 41.409,0.692l 57.426-46.188c0,0, 3.14-2.917, 6.609-0.1l 86.715,73.174l 94.914,80.093L 423.604,371.609 
		L 382.994,371.611z"  />
<glyph unicode="&#xe01f;" d="M 449.447,224c0-50.278-40.758-91.035-91.036-91.035
	c-50.278,0-91.033,40.757-91.033,91.035c0,50.279, 40.757,91.035, 91.033,91.035C 408.689,315.036, 449.447,274.278, 449.447,224
	L 449.447,224z M 244.623,224c0-50.278-40.757-91.035-91.035-91.035s-91.035,40.757-91.035,91.035
	c0,50.279, 40.757,91.035, 91.035,91.035S 244.623,274.278, 244.623,224L 244.623,224z M 227.496,224
	c0,40.819-33.089,73.907-73.907,73.907s-73.907-33.088-73.907-73.907c0-40.819, 33.089-73.905, 73.907-73.905
	S 227.496,183.181, 227.496,224z"  />
<glyph unicode="&#xe020;" d="M 150.469,258.003c0,39.778, 10.556,65.088, 45.911,70.762c 12.349,2.423, 38.067,1.578, 54.415,1.578l0-60.759 
	c0-0.551, 0.076-1.538, 0.207-2.052c 0.685-2.447, 2.914-4.253, 5.544-4.261c 1.487,0, 2.888,0.769, 4.326,2.184L 412.43,416.973
	l-101.736,0.019l-112.826,0 c-89.289,0-134.844-51.428-134.844-147.426l0-201.421 l 87.445,87.538L 150.469,258.003 z M 364.423,289.435l0-102.309 
	c0-39.78-10.549-65.089-45.913-70.764c-12.351-2.422-38.061-1.577-54.407-1.577l0,60.759 c0,0.551-0.074,1.538-0.209,2.041
	c-0.692,2.458-2.914,4.263-5.554,4.272c-1.488,0-2.876-0.769-4.328-2.194L 102.46,28.157l 101.73-0.019l 112.831,0 
	c 89.285,0, 134.855,51.415, 134.855,147.426L 451.877,376.985 L 364.423,289.435z"  />
<glyph unicode="&#xe021;" d="M 184.409,277.063l 32.225,0 l0,14.62 l0,14.321 l0,2.389 c0,13.786, 0.358,35.089, 10.382,48.277c 10.563,13.966, 25.065,23.452, 50.008,23.452
	c 40.638,0, 57.767-5.786, 57.767-5.786l-8.056-47.741c0,0-13.426,3.88-25.959,3.88c-12.531,0-23.752-4.476-23.752-17.008l0-5.073 l0-16.71 
	l0-14.62 l 51.38,0 l-3.58-46.606l-47.8,0 l0-161.96 l-60.39,0 L 216.634,230.456 l-32.225,0 L 184.409,277.063 z"  />
<glyph unicode="&#xe022;" d="M 130.030,322.77l 0.019,0 l 32.878,0 c 1.88,0.002, 3.403,1.532, 3.405,3.401c0,0.012-0.401,28.195-0.401,36.024l0,0.096 
	c0,6.432, 1.35,12.041, 3.706,16.744l 1.12,2.112c-0.122-0.023-0.247-0.080-0.375-0.205l-63.879-63.348c-0.123-0.099-0.197-0.232-0.237-0.373
	c 1.321,0.653, 3.129,1.548, 3.384,1.661C 115.205,321.396, 121.954,322.77, 130.030,322.77L 130.030,322.77z M 385.842,329.666
	c 4.46-23.916, 10.092-118.685, 7.194-150.079c-4.58-49.662-12.155-79.231-15.287-88.923c-15.825-49.090-29.324-50.344-67.64-50.344
	c-48.879,0-63.834,7.259-63.834,46.351c0,43.068, 20.262,43.979, 54.695,43.027c 4.934-0.118-0.284-4.937-0.284-13.283
	c0-8.383, 3.229-11.69-1.218-11.69c-9.954,0-23.397,1.427-23.397-12.162c0-16.799, 8.067-16.256, 29.226-16.256
	c 26.096,0, 31.088,3.256, 31.088,27.026c0,39.073-11.051,45.060-26.276,46.813c-16.846,1.975-33.417,4.506-41.412,7.333
	c-20.236,7.187-18.791,33.981-18.791,41.554c0,1.141-1.598,1.091-1.598,0c0-10.725-0.769-25.542-6.283-42.239
	c-1.716-4.825-2.971-8.091-2.992-8.13c-6.348-13.308-17.002-8.75-33.975-6.578c-17.008,2.168-53.288,9.735-69.173,16.536
	c-7.125,3.306-9.543,6.444-13.171,13.95c-9.362,19.303-19.213,82.777-20.433,91.861c-1.458,11.745-1.522,17.808-1.522,17.808
	c-0.019,7.43, 0.745,14.703, 5.136,20.599c 2.205,2.968, 5.109,5.478, 9.207,7.34c 4.094,1.86, 9.455,3.037, 16.467,3.037l 32.883,0 
	c 7.164,0.010, 12.952,5.816, 12.957,12.952c0,0.049-0.112,7.222-0.205,15.233c-0.097,7.993-0.202,16.99-0.202,20.803
	c 0.012,6.749, 1.724,11.574, 4.361,15.347c 3.937,5.642, 11.012,9.3, 17.408,11.091c 8.042,2.248, 39.382,4.222, 59.654-3.933
	c 7.615-3.071, 14.416-11.933, 15.831-21.63c 11.796,0.361, 31.332,0.521, 47.95-1.437c 20.648-2.435, 37.091-5.47, 45.195-8.398
	C 374.917,350.533, 383.229,343.645, 385.842,329.666L 385.842,329.666L 385.842,329.666z M 319.044,224.923
	c 8.884-0.312, 17.039-2.185, 23.621-5.119c-0.054,9.998-2.239,24.763-17.861,25.303c-14.113,0.493-18.097-11.354-19.295-21
	C 309.759,224.791, 314.311,225.088, 319.044,224.923L 319.044,224.923z"  />
<glyph unicode="&#xe023;" d="M 396.705,275.98L 260.096,370.553c-3.040,2.36-7.38,2.58-10.694,0.249L 115.078,275.849c-2.571-1.588-4.285-4.432-4.285-7.675
	l0-169.612 c0-4.978, 4.036-9.015, 9.016-9.015l 272.379,0 c 4.981,0, 9.015,4.036, 9.015,9.015L 401.203,268.176 
	C 401.203,271.509, 399.394,274.42, 396.705,275.98z M 254.642,352.468l 121.508-84.12l-109.4-72.395l-5.818,4.011
	c-3.033,2.421-7.409,2.68-10.757,0.352l-5.808-4.044l-108.644,72.135L 254.642,352.468z M 128.826,251.392l 99.666-66.176
	l-99.666-69.4L 128.826,251.392 z M 148.519,107.579l 106.843,74.396l 5.833-4.021c 0.232-0.179, 0.474-0.343, 0.721-0.496l 101.365-69.88L 148.519,107.579 z
	 M 383.174,115.694l-100.456,69.253l 100.456,66.477L 383.174,115.694 z"  />
<glyph unicode="&#xe024;" d="M 365.689,236.803l 58.697,48.913c 0.347,0.276, 0.655,0.613, 0.908,1.008c 1.216,1.912, 0.655,4.45-1.258,5.669l-94.989,60.693
		c-1.494,1.118-3.612,1.107-5.106-0.141l-62.81-52.666l-61.353,52.633l0-0.001 c-1.35,1.156-3.347,1.34-4.91,0.324l-97.845-63.73
		c-0.45-0.263-0.855-0.614-1.191-1.054c-1.378-1.806-1.031-4.387, 0.774-5.767l 63.189-48.074l-63.058-47.977
		c-0.465-0.326-0.87-0.754-1.176-1.274c-1.157-1.957-0.508-4.48, 1.448-5.636l 65.113-38.562l 32.889-19.48l0,0
		c 1.4-0.827, 3.219-0.774, 4.591,0.275l 61.437,47.241l 61.555-47.241l 0.002,0.002c 1.299-0.991, 3.118-1.15, 4.604-0.26l 33.786,20.27
		l 62.825,37.692c 0.422,0.233, 0.812,0.544, 1.142,0.933c 1.477,1.725, 1.274,4.321-0.45,5.797L 365.689,236.803z M 260.814,179.398
		l-87.010,55.533l 88.051,55.508l 89.611-53.731L 260.814,179.398zM 260.981,161.73l-63.649-50.74l-35.198,21.656l-0.010,8.515l 0.017-18.42c-0.048-1.376, 0.595-2.743, 1.822-3.564
		l 93.924-62.729c 1.332-0.93, 3.15-1.017, 4.596-0.076l 96.126,62.347c 1.216,0.791, 1.877,2.118, 1.87,3.469l 0.313,12.097l-36.186-21.861
		L 260.981,161.73z"  />
<glyph unicode="&#xe025;" d="M 201.856,372.399l 65.547,0 c 24.196-2.876, 59.399-23.602, 72.389-51.17
	c 3.572-7.736, 5.454-8.925, 8.429-31.832c 1.587-11.801, 2.381-20.528, 7.636-25.387c 7.437-6.744, 35.005-2.182, 40.459-6.446l 4.165-3.272
	l 2.48-5.157l 0.892-4.165l-0.595-75.76c-0.296-51.467-42.145-93.611-93.709-93.611l-107.692,0 c-51.566,0-93.709,42.145-93.709,93.611
	l0,109.377 C 108.147,330.154, 150.292,372.399, 201.856,372.399L 201.856,372.399z M 203.047,188.451c-9.917,0-17.95-8.033-17.95-17.85
	c0-9.718, 8.033-17.85, 17.95-17.85l 105.609,0 c 9.817,0, 17.85,8.132, 17.85,17.85c0,9.817-8.033,17.85-17.85,17.85L 203.047,188.451 
	L 203.047,188.451z M 203.047,295.745c-9.917,0-17.95-8.033-17.95-17.85s 8.033-17.949, 17.95-17.949l 51.961,0 
	c 9.916,0, 17.949,8.132, 17.949,17.949s-8.033,17.85-17.949,17.85L 203.047,295.745 z"  />
<glyph unicode="&#xe026;" d="M 255.654,421.263l0-0.005 L 255.654,421.263 c-94.118,0-170.968-25.305-170.968-56.722c0-8.277, 20.525-126.929, 28.665-173.983
	c 3.651-21.103, 58.185-52.045, 142.261-52.045l 0.086,0.252l0-0.252 c 84.074,0, 138.61,30.941, 142.261,52.045
	c 8.141,47.056, 28.666,165.706, 28.666,173.983C 426.623,395.957, 349.772,421.263, 255.654,421.263z M 255.654,176.63
	c-30.016,0-54.347,24.336-54.347,54.347c0,30.020, 24.332,54.349, 54.347,54.349s 54.347-24.331, 54.347-54.349
	C 310.001,200.966, 285.669,176.63, 255.654,176.63z M 255.623,347.008c-60.471,0.097-109.473,10.604-109.456,23.472
	c 0.021,12.87, 49.064,23.219, 109.532,23.12c 60.469-0.099, 109.473-10.602, 109.452-23.472C 365.131,357.257, 316.093,346.912, 255.623,347.008zM 378.534,143.394c-2.6,0-4.682-1.84-4.682-1.84s-42.105-33.34-118.201-33.342c-76.095,0.002-118.201,33.342-118.201,33.342
	s-2.083,1.84-4.681,1.84c-3.104,0-6.048-2.085-6.048-6.687c0-0.487, 0.046-0.971, 0.136-1.447c 6.535-34.975, 11.309-59.79, 12.15-63.567
	c 5.704-25.729, 56.028-45.142, 116.639-45.145l0,0l 0.005,0 l 0.005,0 l0,0c 60.611,0.004, 110.935,19.417, 116.639,45.145
	c 0.841,3.778, 5.615,28.593, 12.15,63.567c 0.090,0.476, 0.136,0.96, 0.136,1.447C 384.582,141.309, 381.637,143.394, 378.534,143.394z"  />
<glyph unicode="&#xe027;" d="M 292.124,81.934c-57.255,0-114.506-0.364-171.757,0.154
	c-28.788,0.257-40.815,9.339-49.117,38.408c-13.122,45.936-12.79,93.163-9.021,140.24c 1.596,19.95, 4.871,40.156, 10.589,59.29
	c 7.807,26.152, 20.489,34.678, 47.587,34.818c 92.92,0.474, 185.839,0.754, 278.755,0.415c 33.137-0.123, 47.359-10.605, 54.354-42.612
	c 13.68-62.597, 13.751-125.783, 0.064-188.387c-6.982-31.94-20.997-41.905-54.417-42.557c-35.675-0.698-71.369-0.158-107.054-0.158
	C 292.112,81.672, 292.115,81.802, 292.124,81.934z M 221.14,143.17c 40.024,25.809, 76.808,49.528, 117.196,75.567
	c-40.635,26.263-77.418,50.042-117.196,75.75C 221.14,242.804, 221.14,195.467, 221.14,143.17z"  />
<glyph unicode="&#xe00c;" d="M 99.752,320.821c 139.2,0, 252.45-113.866, 252.45-253.824l 60.182,0 
	c0,173.144-140.248,314.005-312.632,314.005L 99.752,320.821 L 99.752,320.821z M 182.984,109.038c0-23.024-18.669-41.687-41.686-41.687
	c-23.014,0-41.685,18.663-41.685,41.687c0,23.027, 18.67,41.687, 41.685,41.687C 164.317,150.724, 182.984,132.061, 182.984,109.038
	L 182.984,109.038z M 99.662,214.132l0,60.182 c 113.813,0, 206.408-92.975, 206.408-207.255l-60.184,0 c0,39.35-15.218,76.309-42.854,104.074
	C 175.437,198.86, 138.728,214.132, 99.662,214.132z"  />
<glyph unicode="&#xe001;" d="M 62.647,361.097c 8.895,20.008, 24.897,24.964, 45.724,24.804
	c 92.479-0.701, 184.969-0.317, 277.453-0.289c 10.651,0.002, 21.86,0.139, 29.251-8.549c 4.894-5.753, 10.156-13.664, 10.224-20.657
	c 0.439-44.937, 1.962-90.081-1.562-134.787c-5.804-73.641-61.759-135.912-133.716-153.871C 187.194,42.087, 86.324,106.219, 66.114,210.166
	c-1.442,7.421-2.324,14.951-3.467,22.431C 62.647,275.43, 62.647,318.263, 62.647,361.097z M 245.037,221.644
	c-4.796,4.382-9.090,8.164-13.223,12.113c-18.081,17.274-36.006,34.71-54.204,51.858c-11.785,11.104-26.291,10.917-36.737,0.017
	c-9.83-10.257-9.821-25.647, 0.951-36.088c 28.099-27.245, 56.405-54.278, 84.908-81.097c 11.495-10.819, 23.682-11.557, 34.982-1.044
	c 29.441,27.406, 58.683,55.062, 87.079,83.54c 14.39,14.431, 6.184,37.899-13.714,42.297c-10.296,2.277-18.1-2.598-25.223-9.475
	C 288.512,263.154, 267.024,242.691, 245.037,221.644z"  />
<glyph unicode="&#xe012;" d="M 237.18,365.251l0-260.594 c-59.495,7.457-104.275,39.961-104.275,78.938c0,36.938, 40.251,68.052, 95.123,77.554l0,33.113 
	c-83.928-10.143-147.264-55.833-147.264-110.667c0-56.814, 67.982-103.81, 156.415-111.627l 52.141,24.545L 289.321,390.721 L 237.18,365.251
	L 237.18,365.251z M 298.471,294.25L 298.471,294.25l0-33.101 c 20.436-3.538, 38.857-10.061, 53.911-18.781l-28.269-15.938l 100.828-21.937
	l-7.195,74.725l-26.76-15.086C 366.045,279.239, 334.114,289.94, 298.471,294.25z"  />
<glyph unicode="&#xe013;" d="M 327.292,276.284c 28.868,0, 52.278,23.412, 52.278,52.279
	c0,28.866-23.41,52.278-52.278,52.278c-28.866,0-52.28-23.413-52.28-52.278C 275.010,299.694, 298.426,276.284, 327.292,276.284
	L 327.292,276.284z M 156.194,289.59c 17.317,0, 31.367,14.041, 31.367,31.369c0,17.319-14.050,31.369-31.367,31.369
	c-17.322,0-31.369-14.050-31.369-31.369C 124.826,303.631, 138.872,289.59, 156.194,289.59L 156.194,289.59z M 156.194,283.889
	c 16.285,0, 30.439-9.094, 37.664-22.484c 9.55,10.317, 23.208,16.778, 38.379,16.778c 20.838,0, 38.824-12.187, 47.224-29.826
	c 12.648,11.448, 29.422,18.422, 47.831,18.422c 39.38,0, 71.29-31.912, 71.29-71.295c0-1.604-0.132-3.172-0.236-4.749l 0.236,0 l0-123.576 
	l-142.583,0 l0,64.639 l-76.043,0 l0,32.319 L 113.419,164.117 L 113.419,238.26 l 0.143,0 c-0.069,0.951-0.143,1.891-0.143,2.854
	C 113.419,264.742, 132.563,283.889, 156.194,283.889L 156.194,283.889z M 232.237,285.163c 21.167,0, 38.333,17.154, 38.333,38.333
	c0,21.167-17.165,38.336-38.333,38.336c-21.169,0-38.337-17.169-38.337-38.336C 193.9,302.317, 211.069,285.163, 232.237,285.163z"  />
<glyph unicode="&#xe014;" d="M 415.139,237.028L 336.506,371.377c-9.464,16.392-6.677,15.828-24.253,15.949L 132.941,387.326 
	c-22.368,0-40.669-18.301-40.669-40.669l0-245.313 c0-22.368, 18.303-40.669, 40.669-40.669l 179.137,0 c 10.936,0, 13.048-0.173, 18.642,9.916
	l 84.809,141.349C 420.67,220.426, 421.704,228.245, 415.139,237.028z M 293.255,320.652c 21.67,0, 39.345-17.673, 39.345-39.344
	s-17.675-39.344-39.345-39.344c-21.668,0-39.343,17.673-39.343,39.344S 271.587,320.652, 293.255,320.652z M 214.872,339.010
	c 21.67,0, 39.344-17.673, 39.344-39.344c0-21.668-17.673-39.344-39.344-39.344s-39.344,17.675-39.344,39.344
	C 175.528,321.336, 193.203,339.010, 214.872,339.010z M 120.432,240.96c0,21.67, 17.673,39.344, 39.344,39.344s 39.344-17.673, 39.344-39.344
	s-17.673-39.344-39.344-39.344S 120.432,219.292, 120.432,240.96z M 183.070,124.554c-21.67,0-39.344,17.673-39.344,39.344
	s 17.673,39.344, 39.344,39.344s 39.344-17.673, 39.344-39.344S 204.74,124.554, 183.070,124.554z M 261.454,106.194
	c-21.67,0-39.344,17.675-39.344,39.344c0,21.67, 17.673,39.345, 39.344,39.345s 39.344-17.675, 39.344-39.345
	C 300.798,123.868, 283.123,106.194, 261.454,106.194z M 316.552,164.898c-21.67,0-39.344,17.673-39.344,39.344
	c0,21.668, 17.673,39.344, 39.344,39.344s 39.345-17.675, 39.345-39.344C 355.897,182.572, 338.223,164.898, 316.552,164.898z"  />
<glyph unicode="&#xe015;" d="M 133.065,316.68c 24.443,0, 39.665,16.213, 39.665,36.452
		c-0.455,20.691-15.222,36.445-39.197,36.445c-23.985,0-39.665-15.754-39.665-36.445c0-20.24, 15.217-36.452, 38.742-36.452L 133.065,316.68 
		L 133.065,316.68z M 168.121,76.958L 168.121,287.892 L 98.012,287.892 l0-210.934 L 168.121,76.958 zM 206.916,76.958l 70.108,0 l0,117.796 c0,6.302, 0.455,12.605, 2.308,17.103
		c 5.069,12.6, 16.603,25.647, 35.971,25.647c 25.376,0, 35.516-19.349, 35.516-47.702l0-112.845 l 70.108,0 L 420.927,197.905 
		c0,64.788-34.586,94.938-80.718,94.938c-37.824,0-54.428-21.145-63.648-35.544l 0.463,0 l0,30.593 l-70.108,0 
		C 207.836,268.104, 206.916,76.958, 206.916,76.958L 206.916,76.958z"  />
<glyph unicode="&#xe016;" d="M 281.456,121.54c 2.411,7.948, 8.74,16.121, 11.99,26.014
	c 4.428,13.48, 3.524,18.493, 3.827,32.919c 31.277-6.533, 36.159-2.851, 61.079,8.108c 3.207-4.254, 12.791-74.103, 13.605-84.947
	c-3.484-2.2-6.905-3.097-10.484-5.726c-4.613-3.389-4.382-5.216-8.366-8.482L 281.456,121.54L 281.456,121.54z M 203.592,296.283
	c-6.772-6.33-33.541-30.85-24.771-42.905c 10.798-14.843, 20.861-27.582, 31.485-42.047l 58.856-78.83
	c 1.699-2.168, 2.291-2.787, 3.941-4.318c 0.248,0.232, 0.579,0.549, 0.732,0.709l 1.393,1.44c 0.185,0.215, 0.443,0.516, 0.628,0.743
	c 1.457,1.801, 0.44,0.489, 1.65,2.332c 1.267,1.933, 1.893,3.077, 2.883,5.019c 2,3.923, 3.521,7.891, 4.765,12.259
	c 7.195,25.266, 0.58,36.773-10.324,51.715l-42.593,57.071C 227.143,266.318, 207.813,293.363, 203.592,296.283L 203.592,296.283z
	 M 210.712,303.493c 1.466-5.361, 23.792-33.636, 28.353-39.797c 9.322-12.59, 18.363-24.74, 27.988-37.573
	c 6.771-9.030, 21.161-32.378, 30.973-35.855c 19.181-6.795, 39.419-2.967, 54.734,5.5c-3.778,7.787-67.565,91.333-77.192,104.449
	l-15.608,21.15C 251.596,329.813, 217.163,305.856, 210.712,303.493L 210.712,303.493z M 235.726,334.3
	c-7.28-2.82-24.111-11.41-28.583-12.188c-2.564-3.783-8.792-7.559-12.414-10.256c-14.242-10.603-19.676-21.403-28.006-34.929
	l-2.479-3.258c-5.796,6.065-11.574,13.799-16.351,21.445c 3.446,19.065, 29.436,42.728, 42.413,50.275
	c 7.652,4.592, 19.755,11.473, 30.015,13.218l 9.5,2.189c 3.651-3.443, 17.145-20.633, 17.604-24.151L 235.726,334.3L 235.726,334.3z
	 M 135.846,312.229c-5.642,33.515, 46.918,76.792, 82.202,62.856c-4.163-2.859-43.049-9.66-68.045-42.124
	C 144.768,326.161, 137.995,313.353, 135.846,312.229L 135.846,312.229z M 256.385,114.468c 7.509-10.31, 10.21-9.321, 25.967-16.046
	c 35.148-15, 82.602-34.428, 116.219-50.111c-2.611,38.249-12.13,101.892-17.752,142.096
	c-2.159,15.443-137.030,193.506-149.079,202.361c-41.588,30.57-147.846-47.055-110.486-97.335
	c 9.138-12.299, 16.531-22.259, 25.782-34.561C 274.341,91.585, 156.14,252.099, 256.385,114.468z"  />
<glyph unicode="&#xe017;" d="M 232.036,138.626l-14.241,38.713c0,0-23.144-25.811-57.847-25.811
	c-30.709,0.001-52.51,26.701-52.51,69.422c0,54.733, 27.585,74.313, 54.733,74.313c 39.157,0, 51.617-25.365, 62.297-57.849
	l 14.242-44.5c 14.236-43.163, 40.937-77.871, 117.919-77.871c 55.183,0, 92.561,16.909, 92.561,61.404
	c0,36.046-20.474,54.735-58.741,63.637l-28.479,6.229c-19.577,4.45-25.363,12.46-25.363,25.81
	c0,15.131, 12.012,24.030, 31.595,24.030c 21.359,0, 32.927-8.011, 34.71-27.146l 44.498,5.342c-3.561,40.049-31.148,56.512-76.539,56.512
	c-40.046,0-79.207-15.131-79.207-63.633c0-30.259, 14.685-49.397, 51.616-58.294l 30.265-7.12c 22.695-5.342, 30.254-14.685, 30.254-27.59
	c0-16.461-16.018-23.138-46.278-23.138c-44.945,0-63.632,23.586-74.315,56.069l-14.684,44.496
	c-18.686,57.851-48.502,79.209-107.689,79.209c-65.412,0-100.122-41.384-100.122-111.691c0-67.64, 34.711-104.127, 97.012-104.127
	C 208.003,115.044, 232.036,138.626, 232.036,138.626L 232.036,138.626z"  />
<glyph unicode="&#xe00b;" d="M 129.14,279.801c 14.658,0, 28.27-5.235, 40.842-15.697l 126.709,63.865l0,4.186 c0,34.558, 28.27,61.784, 62.826,61.784
	c 34.555,0, 62.826-27.226, 62.826-61.784c0-36.648-28.273-62.825-62.826-62.825c-15.711,0-29.326,5.236-40.842,14.657l-126.709-63.86
	l0-3.142 l0-4.191 l 126.709-62.826c 11.516,8.378, 25.13,14.663, 40.842,14.663c 34.555,0, 62.826-28.277, 62.826-62.831
	c0-34.557-28.273-62.834-62.826-62.834c-34.557,0-62.826,28.277-62.826,62.834l0,3.135 l-126.709,63.881
	c-11.516-9.427-25.13-14.663-40.842-14.663c-34.555,0-62.826,28.277-62.826,62.832C 66.313,251.541, 94.585,279.801, 129.14,279.801z"  />
<glyph unicode="&#xe00a;" d="M 410.494,188.697c 2.361,10.815, 3.62,22.045, 3.62,33.564c0,86.345-70.009,156.356-156.372,156.356
	c-9.111,0-18.055-0.782-26.737-2.286c-13.976,8.805-30.511,13.913-48.244,13.913c-50.085,0-90.689-40.605-90.689-90.672
	c0-16.752, 4.556-32.413, 12.471-45.866c-2.070-10.171-3.174-20.679-3.174-31.446c0-86.361, 70.009-156.372, 156.372-156.372
	c 9.787,0, 19.359,0.904, 28.639,2.623c 12.763-6.858, 27.351-10.755, 42.86-10.755c 50.084,0, 90.688,40.589, 90.688,90.673
	C 419.928,162.897, 416.522,176.563, 410.494,188.697z M 337.938,147.528c-7.232-10.236-17.92-18.347-31.768-24.105
	c-13.713-5.7-30.153-8.591-48.865-8.591c-22.457,0-41.287,3.95-55.983,11.747c-10.507,5.674-19.167,13.36-25.746,22.847
	c-6.641,9.581-10.011,19.087-10.011,28.254c0,5.73, 2.196,10.698, 6.523,14.764c 4.284,4.028, 9.773,6.070, 16.32,6.070
	c 5.372,0, 10.007-1.613, 13.774-4.797c 3.6-3.051, 6.689-7.563, 9.169-13.392c 2.771-6.348, 5.792-11.705, 8.984-15.925
	c 3.066-4.059, 7.479-7.473, 13.115-10.136c 5.668-2.683, 13.31-4.045, 22.711-4.045c 12.928,0, 23.523,2.762, 31.496,8.204
	c 7.787,5.316, 11.57,11.697, 11.57,19.51c0,6.172-1.974,11.026-6.038,14.832c-4.255,3.98-9.868,7.074-16.683,9.201
	c-7.11,2.216-16.757,4.606-28.69,7.104c-16.227,3.474-30.016,7.601-40.981,12.263c-11.212,4.771-20.252,11.384-26.861,19.661
	c-6.715,8.401-10.119,18.943-10.119,31.336c0,11.813, 3.573,22.459, 10.618,31.644c 6.993,9.12, 17.205,16.209, 30.353,21.072
	c 12.978,4.799, 28.414,7.232, 45.881,7.232c 13.965,0, 26.243-1.615, 36.491-4.802c 10.307-3.21, 18.996-7.544, 25.825-12.878
	c 6.876-5.372, 11.993-11.121, 15.203-17.092c 3.244-6.031, 4.892-12.031, 4.892-17.838c0-5.586-2.159-10.665-6.417-15.087
	c-4.281-4.454-9.685-6.712-16.060-6.712c-5.79,0-10.322,1.414-13.469,4.2c-2.925,2.587-5.961,6.62-9.33,12.421
	c-3.899,7.409-8.619,13.249-14.034,17.364c-5.253,3.997-14.036,6.026-26.105,6.026c-11.21,0-20.325-2.249-27.093-6.687
	c-6.523-4.277-9.692-9.18-9.692-14.989c0-3.563, 1.020-6.541, 3.119-9.103c 2.222-2.715, 5.357-5.098, 9.318-7.079
	c 4.111-2.065, 8.345-3.707, 12.588-4.879c 4.344-1.205, 11.638-2.993, 21.635-5.303c 12.653-2.717, 24.286-5.759, 34.568-9.047
	c 10.413-3.334, 19.413-7.443, 26.75-12.218c 7.491-4.876, 13.421-11.141, 17.629-18.617c 4.219-7.506, 6.357-16.77, 6.357-27.536
	C 348.878,169.543, 345.199,157.803, 337.938,147.528z"  />
<glyph unicode="&#xe009;" d="M 427.309,251.331c-6.213,0-13.311-1.774-21.306-4.438c-6.212,47.039-45.269,83.435-94.978,83.435
		c-24.859,0-45.269-7.987-62.138-23.077l0-163.33 L 425.54,143.921 l0,0.883 c 38.17,2.665, 54.144,24.858, 54.144,53.265
		C 479.684,227.363, 458.381,251.331, 427.309,251.331zM 211.604,294.821L 211.604,143.921L 239.114,143.921L 239.114,298.375L 231.137,286.842 	zM 183.195,297.484l0-153.563 l 18.646,0 l0,153.563 c-3.561,0-7.99,0.891-11.54,0.891
		C 187.634,298.375, 184.972,298.375, 183.195,297.484zM 145.915,143.921l 18.641,0 l0,150.010 c-6.217-1.775-12.429-4.439-18.641-8.868L 145.915,143.921 zM 108.632,236.24l0-92.319 l 18.636,0 L 127.267,267.309 c-7.98-10.652-12.424-21.303-15.086-32.844
		C 112.182,234.467, 111.293,235.352, 108.632,236.24zM 71.343,240.679l0-94.984 c 4.444-0.891, 7.993-1.774, 14.205-1.774l 4.446,0 l0,97.644 c-0.893,0.89-2.677,0.89-4.446,0.89
		C 79.338,242.454, 75.787,241.565, 71.343,240.679zM 34.952,192.743c0-14.204, 6.212-26.63, 17.754-37.28l0,74.562 C 42.049,220.263, 34.952,207.838, 34.952,192.743z"  />
<glyph unicode="&#xe007;" d="M 188.174,195.653c 10.415,0, 16.509,0.167, 26.022-4.406
	c 3.077-1.479, 4.77-2.535, 7.386-4.318c 35.052-23.892, 24.4-87.268-31.068-87.268c-3.224,0-10.268,1.638-12.956,2.648
	c-4.036,1.515-7.422,2.996-10.458,5.148c-4.439,3.147-13.324,10.809-14.816,16.396c 14.798-3.448, 38.224-24.028, 63.797-0.602
	c 13.914,12.748, 16,36.524, 3.913,51.165c-8.699,10.536-13.379,11.66-26.137,16.781c-2.933,1.176-4.939,2.179-8.026,2.897
	C 186.748,195.408, 185.947,195.653, 188.174,195.653L 188.174,195.653z M 87.124,153.597c 0.032-2.72, 1.489-3.985, 3.074-4.635
	l 36.615-14.69c 4.034-1.957, 3.046-7.664, 9.339-19.531c 28.15-53.072, 114.197-38.030, 122.79,21.046c 0.959,6.598-1.049,3.87, 9.362,11.707
	l 71.223,52.062c 8.354,6.033, 14.795,1.754, 33.266,8.087c 19.216,6.589, 34.888,19.213, 45.857,36.074
	c 8.195,12.595, 12.71,26.695, 13.719,41.004l0,12.435 c-1.12,15.982-6.552,31.76-16.065,45.539c-1.394,2.020-2.834,4.064-4.407,5.737
	l-10.53,10.537c-10.98,10.727-35.375,20.868-52.476,20.868c-15.739,0-26.659-0.514-41.1-7.274
	c-7.163-3.353-17.952-9.99-23.082-15.152c-17.599-17.707-25.114-30.787-28.904-56.154c-0.234-1.566-0.321-6.868-0.744-8.621
	c-0.332-1.363-12.709-18.991-15.178-22.279l-31.428-45.047c-2.655-4.038-5.459-7.278-7.801-11.707
	c-18.069,0.403-21.63,0.020-38.484-7.632c-3.628-1.647-5.354,0.195-11.671,2.725c-15.728,6.297-30.472,12.194-46.253,18.507
	l-12.949,5.211c-2.831,0.84-3.978-0.007-4.175-3.706L 87.124,153.597 L 87.124,153.597z M 296.62,293.987c0,12.677, 7.315,24.923, 13.825,31.435
	c 9.702,9.707, 20.5,13.83, 36.107,13.83c 30.591,0, 56.684-35.689, 40.313-68.421c-1.443-2.887-2.417-5.090-4.295-7.41
	c-0.988-1.218-1.59-1.654-2.575-2.887c-18.469-23.123-57.214-21.929-75.133,4.235C 298.783,273.643, 296.62,282.661, 296.62,293.987
	L 296.62,293.987z M 284.917,291.647c0,14.743, 6.591,30.44, 16.969,40.779c 26.329,26.227, 67.449,21.755, 86.696-2.639
	c 9.991-12.661, 14.144-22.284, 14.144-40.482c0-30.481-29.095-58.65-59.787-56.603c-25.478,1.7-42.031,13-52.563,34.746
	C 287.277,273.844, 284.917,284.33, 284.917,291.647z"  />
<glyph unicode="&#xe008;" d="M 119.296,199.589L 119.296,57.713L 347.15,57.713L 347.15,199.589L 322.762,199.589L 322.762,80.926L 144.275,80.875L 144.275,199.589 	zM 258.119,360.572l 37.507-56.469c 12.502-17.882, 27.235-38.624, 38.15-56.415
		l 24.463,15.223l-74.929,113.807L 258.119,360.572zM 162.556,104.083L 299.987,104.081L 300.196,133.709L 163.27,133.687 	zM 341.638,401.121L 363.961,266.261L 392.297,270.048L 369.094,405.681 	zM 171.891,216.944L 304.024,181.376L 312.448,209.409L 179.545,245.209 	zM 196.575,287.772L 314.531,217.946L 329.78,242.563L 211.087,313.172 	zM 163.775,154.851L 299.799,142.052L 303.637,170.743L 166.539,183.881 	z"  />
<glyph unicode="&#xe006;" d="M 186.375,124.559c 0.084-17.021, 3.684-33.484, 14.815-45.814
	c 1.429-1.582, 2.735-2.41, 4.118-3.86c 10.504-11.011, 25.94-19.527, 45.164-24.1c 19.735-4.696, 43.502-4.517, 63.428-1.22
	c 14.648,2.422, 40.509,10.489, 51.008,17.094l-0.033,55.272c-5.33-1.231-28.556-20.003-59.871-16.589
	c-24.908,2.714-33.564,19.244-34.605,42.368c-0.943,7.964-0.961,106.464-0.839,108.051l 83.53,0.010l 0.005,55.273l-83.886,0.212
	l-0.4,89.253l-40.48-0.001c-6.024,0.047-8.899,1.774-9.921-3.202c-3.436-16.732-4.427-27.758-11.991-42.134
	c-11.885-22.581-34.111-43.377-59.322-49.083l0-50.3 l 39.136-0.344L 186.375,124.559z"  />
<glyph unicode="&#xe005;" d="M 426.080,323.255c-12.034-5.337-24.967-8.943-38.541-10.566c 13.854,8.304, 24.495,21.455, 29.505,37.126
	c-12.968-7.69-27.327-13.275-42.615-16.284c-12.24,13.042-29.681,21.191-48.981,21.191c-37.061,0-67.106-30.045-67.106-67.104
	c0-5.259, 0.592-10.381, 1.737-15.294c-55.771,2.799-105.217,29.515-138.314,70.114c-5.778-9.911-9.085-21.438-9.085-33.737
	c0-23.282, 11.846-43.823, 29.853-55.854c-11.001,0.349-21.349,3.367-30.396,8.393c-0.006-0.28-0.006-0.56-0.006-0.844
	c0-32.514, 23.132-59.632, 53.83-65.801c-5.631-1.532-11.559-2.354-17.68-2.354c-4.324,0-8.528,0.422-12.626,1.205
	c 8.54-26.659, 33.324-46.061, 62.687-46.6c-22.965-18-51.901-28.73-83.341-28.73c-5.416,0-10.758,0.32-16.008,0.94
	c 29.698-19.040, 64.971-30.15, 102.866-30.15c 123.432,0, 190.929,102.253, 190.929,190.93c0,2.909-0.065,5.804-0.194,8.682
	C 405.709,297.98, 417.084,309.798, 426.080,323.255z"  />
<glyph unicode="&#xe004;" d="M 426.214,317.18c 2.58,14.467, 2.522,29.34-6.411,40.589
	c-12.466,15.773-38.995,16.352-57.172,13.57c-14.785-2.261-64.797-24.325-81.815-77.15c 30.152,2.291, 45.952-2.174, 43.053-35.37
	c-1.218-13.887-8.232-29.108-16.062-43.692c-9.045-16.816-26.007-49.84-48.243-26.037c-20.035,21.428-18.53,62.393-23.109,89.675
	c-2.548,15.31-5.247,34.385-10.261,50.128c-4.321,13.54-14.235,29.863-26.354,33.4c-13.018,3.827-29.111-2.145-38.562-7.712
	c-30.094-17.685-53.027-42.85-79.061-63.609l0-1.942 c 5.161-4.929, 6.552-13.018, 14.147-14.12
	c 17.918-2.638, 34.996,16.701, 46.91-3.42c 7.248-12.293, 9.511-25.774, 14.151-39.025c 6.203-17.657, 10.987-36.88, 16.062-57.172
	c 8.582-34.386, 19.134-85.762, 48.854-98.341c 15.162-6.439, 37.953,2.173, 49.488,9.015c 31.257,18.499, 55.61,45.316, 76.457,72.598
	C 395.945,223.125, 422.241,296.275, 426.214,317.18z"  />
<glyph unicode="&#xe003;" d="M 390.848,101.113c-0.688,0-1.36,0-2.048,0c-22.008,3.674-37.004,19.464-49.81,34.074
	c-7.205,8.265-18.299,26.952-31.51,24.798c-18.759-3.072-9.434-35.627-17.276-49.582c-6.323-11.268-33.258-9.235-51.833-7.222
	c-58.628,6.322-88.588,38.117-114.852,72.294c-28.078,36.528-49.935,74.749-70.14,116.716c-6.545,13.584-15.243,28.613-15.243,45.448
	c 9.504,7.861, 25.011,5.16, 40.661,5.16c 13.266,0, 33.986,2.967, 43.698-2.068c 5.776-2.967, 11.605-18.811, 16.269-28.915
	c 10.704-23.192, 20.549-39.883, 33.543-58.87c 5.627-8.232, 14.271-23.756, 24.392-21.691c 9.829,1.995, 10.756,26.601, 11.18,42.338
	c 0.492,17.873-0.020,40.094-5.078,49.581c-4.778,8.955-13.521,9.132-22.363,14.467c 7.358,15.031, 27.527,16.532, 51.843,16.532
	c 20.426,0, 48.951,2.296, 56.915-11.375c 8.109-13.919, 2.545-39.018, 2.032-57.828c-0.564-21.143-4.168-42.975, 10.176-52.687
	c 11.022,1.216, 16.955,12.134, 23.366,20.665c 14.024,18.67, 22.696,34.831, 33.542,58.87c 4.451,9.875, 9.221,26.865, 17.276,29.957
	c 12.276,4.717, 31.845,1.025, 49.81,1.025c 14.73,0, 41.012,4.133, 45.746-6.201c 3.925-8.567-7.629-30.205-11.179-36.139
	c-13.619-22.681-26.973-37.128-41.667-56.806c-5.884-7.877-18.016-20.472-17.293-33.066c 0.548-9.554, 9.998-16.886, 17.293-23.758
	c 15.773-14.888, 26.846-25.735, 39.635-42.337c 4.805-6.255, 15.226-19.799, 14.219-27.891C 469.059,91.363, 410.56,107.188, 390.848,101.113
	z"  />
<glyph unicode="&#xe002;" d="M 153.040,363.047l 121.523,0 c 39.987,0, 74.026-19.589, 73.99-59.201
	c-0.031-33.076-12.007-45.941-36.611-60.489c 2.102-1.733, 16.202-5.939, 20.937-8.272c 7.581-3.736, 12.041-7.514, 17.029-12.584
	c 13.959-14.193, 16.562-27.168, 16.562-49.431c0-51.655-49.962-77.623-98.074-77.623l-115.87,0 L 153.040,363.047L 153.040,363.047z
	 M 219.074,292.741l-0.009-34.751c 31.301,0, 60.714-4.123, 60.714,29.816c0,31.42-33.274,26.243-60.736,26.243L 219.074,292.741
	L 219.074,292.741z M 219.057,144.705c 34.298,0, 76.67-5.651, 77.414,33.289c 0.778,40.617-43.528,33.286-77.394,33.286L 219.057,144.705z"  />
<glyph unicode="&#xe00d;" d="M 226.589,265.955c0-37.607, 19.993-52.648, 40.61-52.648l 13.128,0 l0,107.804 l-15.94,0 
		C 245.332,321.111, 226.589,305.132, 226.589,265.955zM 415.138,237.028L 336.505,371.377c-9.463,16.39-6.677,15.827-24.253,15.947
		l-179.311,0 c-22.368,0-40.669-18.3-40.669-40.668l0-245.313 c0-22.368, 18.303-40.669, 40.669-40.669l 179.137,0 
		c 10.935,0, 13.048-0.174, 18.641,9.916l 84.809,141.349C 420.669,220.426, 421.703,228.245, 415.138,237.028z M 304.382,108.637
		c0-1.562-0.627-2.5-2.501-2.5l-19.378,0 c-1.241,0-2.176,1.251-2.176,2.189l0,84.929 L 264.697,193.255 l-43.422-84.929
		c-0.624-1.564-1.875-2.189-3.749-2.189l-22.182,0 c-2.492,0-4.053,2.189-2.492,5.011l 47.79,86.492
		c-25.61,11.283-39.986,34.156-39.986,65.178c0,51.709, 29.683,78.346, 64.665,78.346l 35.62,0 c 2.185,0, 3.438-0.938, 3.438-3.136L 304.381,108.637 z"  />
<glyph unicode="&#xe00e;" d="M 221.252,403.129L 195.167,403.129L 179.303,336.705L 177.674,336.705L 161.025,403.129L 135.173,403.129L 135.173,403.121L 165.706,302.803L 165.706,236.943L 191.376,236.943L 191.376,305.897 	zM 229.064,243.091c 5.957-6.138, 13.907-9.219, 23.826-9.244l 0.218,0 c 10.307,0.026, 18.399,3.015, 24.294,8.953
		c 5.886,5.965, 8.835,14.188, 8.841,24.677l0,63.361 c-0.006,9.337-3.007,16.974-9.017,22.896c-6.026,5.938-13.748,8.897-23.191,8.897
		c-10.362,0-18.614-2.802-24.737-8.439c-6.143-5.63-9.216-13.192-9.216-22.681l 0.009-63.555
		C 220.093,257.539, 223.088,249.247, 229.064,243.091L 229.064,243.091z M 243.551,332.426L 243.551,332.426
		c0,2.682, 0.872,4.846, 2.608,6.503c 1.741,1.638, 3.991,2.453, 6.772,2.453c 3.009,0, 5.449-0.816, 7.303-2.453
		c 1.851-1.656, 2.79-3.821, 2.79-6.503l0-66.764 c0-3.299-0.908-5.868-2.729-7.749c-1.814-1.884-4.263-2.824-7.363-2.824
		c-3.012,0-5.321,0.918-6.955,2.751c-1.621,1.852-2.427,4.454-2.427,7.822L 243.549,332.426 zM 347.87,359.533l0-93.061 c-2.153-2.661-4.491-4.866-7.059-6.589c-2.554-1.728-4.666-2.58-6.348-2.58
		c-2.137,0-3.683,0.648-4.631,1.953c-0.949,1.299-1.424,3.394-1.424,6.304L 328.408,359.533 l-22.803,0 l0-102.512 
		c 0.005-7.277, 1.34-12.734, 4.004-16.379c 2.669-3.642, 6.644-5.456, 11.911-5.456c 4.264,0, 8.679,1.3, 13.241,3.896
		c 4.53,2.604, 8.9,6.409, 13.11,11.387l0-13.527 l 22.784,0 L 370.652,359.533 L 347.87,359.533 zM 202.003,189.797L 148.135,189.797 l0-16.493 l 18.155,0 l0-97.142 l 17.551,0 L 183.84,173.304 l 18.164,0 L 202.004,189.797 L 202.003,189.797z M 230.685,96.357l0,63.629 
		l 15.587,0 l0-83.823 l-15.587,0 l0,9.259 c-2.868-3.421-5.86-6.013-8.966-7.795c-3.108-1.783-6.127-2.671-9.047-2.671
		c-3.6,0-6.322,1.246-8.14,3.737c-1.831,2.498-2.748,6.239-2.748,11.232l0,70.061 l 15.583,0 l0-64.249 c0-1.993, 0.328-3.435, 0.986-4.316
		c 0.65-0.893, 1.709-1.332, 3.171-1.332c 1.142,0, 2.59,0.58, 4.345,1.757C 227.623,93.029, 229.226,94.529, 230.685,96.357
		L 230.685,96.357L 230.685,96.357z M 291.075,161.050L 291.075,161.050c-2.418,0-4.807-0.67-7.174-2.002
		c-2.358-1.332-4.592-3.271-6.698-5.833l0,36.582 L 261.477,189.797 l0-113.634 l 15.724,0 l0,6.443 c 2.062-2.548, 4.274-4.44, 6.657-5.654
		c 2.389-1.234, 5.103-1.852, 8.153-1.852c 4.625,0, 8.143,1.585, 10.592,4.746c 2.442,3.169, 3.657,7.727, 3.657,13.687l0,46.5 
		c0,6.849-1.294,12.061-3.899,15.65C 299.77,159.253, 295.996,161.050, 291.075,161.050L 291.075,161.050z M 290.221,95.816
		L 290.221,95.816c0-2.677-0.452-4.603-1.351-5.781c-0.897-1.176-2.297-1.765-4.21-1.765c-1.319,0-2.569,0.292-3.757,0.906
		c-1.2,0.597-2.423,1.58-3.702,2.942l0,52.236 c 1.068,1.151, 2.136,2, 3.23,2.556c 1.080,0.544, 2.173,0.82, 3.287,0.82
		c 2.112,0, 3.719-0.735, 4.831-2.197c 1.114-1.467, 1.67-3.615, 1.67-6.448L 290.22,95.816 L 290.221,95.816z M 363.86,116.116L 363.86,116.116
		L 363.86,137.451 c0,7.958-1.912,14.051-5.726,18.29c-3.838,4.245-9.317,6.365-16.447,6.365c-6.968,0-12.658-2.287-17.068-6.863
		c-4.406-4.581-6.599-10.514-6.599-17.792l0-37.629 c0-8.063, 2.002-14.399, 6.006-19.021c 4.020-4.599, 9.508-6.907, 16.482-6.907
		c 7.762,0, 13.592,2.166, 17.496,6.517c 3.912,4.353, 5.855,10.825, 5.855,19.409l0,6.298 l-16.035,0 l0-5.822 c0-4.939-0.513-8.118-1.541-9.565
		c-1.023-1.432-2.84-2.16-5.424-2.16c-2.472,0-4.224,0.849-5.253,2.556c-1.033,1.701-1.556,4.77-1.556,9.169l0,15.818 L 363.86,116.116 
		L 363.86,116.116z M 334.052,137.609L 334.052,137.609c0,3.51, 0.551,6.028, 1.631,7.544c 1.078,1.52, 2.86,2.277, 5.343,2.277
		c 2.368,0, 4.099-0.758, 5.177-2.277c 1.080-1.516, 1.621-4.034, 1.621-7.544l0-8.491 l-13.774,0 L 334.051,137.609 z"  />
<glyph unicode="&#xe028;" d="M 362.599,211.303c-5.214,10.471-19.653,19.184-38.84,4.065
	c-25.934-20.437-67.593-20.437-67.593-20.437s-41.66,0-67.594,20.437c-19.19,15.119-33.626,6.406-38.838-4.065
	c-9.089-18.256, 1.18-27.082, 24.352-41.957c 19.79-12.707, 46.987-17.453, 64.547-19.228l-14.658-14.658
	c-20.649-20.648-40.582-40.583-54.411-54.413c-8.27-8.266-8.27-21.672,0-29.942l 2.493-2.494c 4.126-4.124, 9.526-6.191, 14.933-6.2
	l 0.078,0 c 5.404,0.010, 10.809,2.078, 14.933,6.2l 54.411,54.411c 20.649-20.646, 40.582-40.58, 54.411-54.408
	c 8.267-8.269, 21.673-8.269, 29.942,0l 2.494,2.493c 8.27,8.27, 8.267,21.673,0,29.943l-54.411,54.411l-14.706,14.703
	c 17.576,1.811, 44.48,6.581, 64.106,19.183C 361.418,184.221, 371.686,193.045, 362.599,211.303L 362.599,211.303z M 256.166,360.327
	c 25.088,0, 45.426-20.338, 45.426-45.425c0-25.088-20.338-45.425-45.426-45.425s-45.425,20.337-45.425,45.425
	C 210.739,339.989, 231.078,360.327, 256.166,360.327L 256.166,360.327z M 256.166,222.569c 50.995,0, 92.334,41.338, 92.334,92.333
	c0,50.993-41.34,92.332-92.334,92.332c-50.995,0.001-92.334-41.338-92.334-92.332C 163.831,263.908, 205.17,222.569, 256.166,222.569
	L 256.166,222.569z"  />
<glyph unicode="&#x20;" horiz-adv-x="256" />
</font>
</defs>
</svg>
